<svg width="768" height="576" xmlns="http://www.w3.org/2000/svg" xmlns:xlink="http://www.w3.org/1999/xlink" overflow="hidden"><defs><clipPath id="clip0"><rect x="0" y="0" width="768" height="576"/></clipPath></defs><g clip-path="url(#clip0)"><rect x="0" y="0" width="768" height="576" fill="#FFFFFF"/><rect x="14.5001" y="85.5001" width="740" height="147" stroke="#B0C85D" stroke-linejoin="round" stroke-miterlimit="10" fill="#B0C85D"/><text fill="#FFFFFF" font-family="DejaVu Sans,DejaVu Sans_MSFontService,sans-serif" font-weight="400" font-size="21" transform="translate(131.302 120)">Methodology<tspan font-size="21" x="137.627" y="0">-</tspan><tspan font-size="21" x="152.127" y="0">and Technology</tspan>-specific Libraries</text><rect x="51.5001" y="232.5" width="703" height="38" stroke="#6E86B5" stroke-linejoin="round" stroke-miterlimit="10" fill="#274A91"/><text fill="#FFFFFF" font-family="DejaVu Sans,DejaVu Sans_MSFontService,sans-serif" font-weight="400" font-size="21" transform="translate(271.156 258)">SystemC Core Language</text><rect x="51.5001" y="270.5" width="130" height="219" stroke="#6E86B5" stroke-linejoin="round" stroke-miterlimit="10" fill="#274A91"/><text fill="#FFFFFF" font-family="DejaVu Sans,DejaVu Sans_MSFontService,sans-serif" font-weight="400" font-size="19" transform="translate(69.7351 310)">Structural <tspan font-size="19" x="2.74667" y="23">Elements</tspan><tspan font-size="15" x="15.7467" y="60">Modules </tspan><tspan font-size="15" x="27.58" y="80">Ports </tspan><tspan font-size="15" x="18.3333" y="100">Exports </tspan><tspan font-size="15" x="9.58" y="120">Interfaces </tspan><tspan font-size="15" x="12.3333" y="140">Channels </tspan></text><rect x="521.5" y="270.5" width="233" height="219" stroke="#6E86B5" stroke-linejoin="round" stroke-miterlimit="10" fill="#274A91"/><text fill="#FFFFFF" font-family="DejaVu Sans,DejaVu Sans_MSFontService,sans-serif" font-weight="400" font-size="19" transform="translate(586.075 310)">Data Types<tspan font-size="15" x="-18.7067" y="41">4</tspan><tspan font-size="15" x="-9.37335" y="41">-</tspan><tspan font-size="15" x="-4.03998" y="41">valued logic type</tspan><tspan font-size="15" x="-29.3734" y="61">4</tspan><tspan font-size="15" x="-20.04" y="61">-</tspan><tspan font-size="15" x="-14.7067" y="61">valued logic vectors</tspan><tspan font-size="15" x="12.2133" y="81">Bit vectors</tspan><tspan font-size="15" x="-37.04" y="101">Finite</tspan><tspan font-size="15" x="3.62665" y="101">-</tspan><tspan font-size="15" x="8.96002" y="101">precision integers</tspan><tspan font-size="15" x="-44.04" y="121">Limited</tspan><tspan font-size="15" x="10.6266" y="121">-</tspan><tspan font-size="15" x="15.96" y="121">precision integers</tspan><tspan font-size="15" x="-12.2067" y="141">Fixed</tspan><tspan font-size="15" x="27.2933" y="141">-</tspan><tspan font-size="15" x="32.6266" y="141">point types</tspan></text><rect x="181.5" y="270.5" width="204" height="151" stroke="#6E86B5" stroke-linejoin="round" stroke-miterlimit="10" fill="#274A91"/><text fill="#FFFFFF" font-family="DejaVu Sans,DejaVu Sans_MSFontService,sans-serif" font-weight="400" font-size="19" transform="translate(233.226 310)">Predefined<tspan font-size="19" x="6.8" y="23">Channels</tspan><tspan font-size="15" x="-19.3667" y="60">Signal, clock, FIFO, </tspan><tspan font-size="15" x="-19.62" y="80">mutex, semaphore </tspan></text><rect x="384.5" y="270.5" width="137" height="151" stroke="#6E86B5" stroke-linejoin="round" stroke-miterlimit="10" fill="#274A91"/><text fill="#FFFFFF" font-family="DejaVu Sans,DejaVu Sans_MSFontService,sans-serif" font-weight="400" font-size="19" transform="translate(417.589 310)">Utilities<tspan font-size="15" x="10.42" y="40">Report </tspan><tspan font-size="15" x="0.919983" y="60">handling,</tspan><tspan font-size="15" x="9.33334" y="80">tracing</tspan></text><rect x="181.5" y="421.5" width="340" height="68" stroke="#6E86B5" stroke-linejoin="round" stroke-miterlimit="10" fill="#274A91"/><text fill="#FFFFFF" font-family="DejaVu Sans,DejaVu Sans_MSFontService,sans-serif" font-weight="400" font-size="19" transform="translate(238.895 449)">Event<tspan font-size="19" x="53.5" y="0">-</tspan><tspan font-size="19" x="60.1667" y="0">driven Simulation</tspan><tspan font-size="15" x="46.0867" y="22">Events, processes</tspan></text><rect x="14.5001" y="141.5" width="37" height="348" stroke="#6E86B5" stroke-linejoin="round" stroke-miterlimit="10" fill="#274A91"/><text fill="#FFFFFF" font-family="DejaVu Sans,DejaVu Sans_MSFontService,sans-serif" font-weight="400" font-size="21" transform="matrix(-1.83697e-16 -1 1 -1.83697e-16 39.6969 424)">IEEE Std. 1666<tspan font-size="21" x="156" y="2.86567e-14">-</tspan><tspan font-size="21" x="164" y="3.01263e-14">2011</tspan></text><rect x="51.5001" y="141.5" width="130" height="91" stroke="#6E86B5" stroke-linejoin="round" stroke-miterlimit="10" fill="#274A91"/><text fill="#FFFFFF" font-family="DejaVu Sans,DejaVu Sans_MSFontService,sans-serif" font-weight="400" font-size="21" transform="translate(94.4018 194)">TLM</text><rect x="196.5" y="157.5" width="130" height="60" stroke="#92B70D" stroke-linejoin="round" stroke-miterlimit="10" fill="#92B70D"/><text fill="#FFFFFF" font-family="DejaVu Sans,DejaVu Sans_MSFontService,sans-serif" font-weight="400" font-size="21" transform="translate(238.053 194)">AMS<tspan font-size="11" x="-36.5867" y="16">IEEE</tspan><tspan font-size="11" x="-10.0867" y="16">Std. 1666.1</tspan><tspan font-size="11" x="51.9133" y="16">-</tspan><tspan font-size="11" x="55.7467" y="16">2016</tspan></text><rect x="14.5001" y="23.5001" width="740" height="62" stroke="#FF7700" stroke-linejoin="round" stroke-miterlimit="10" fill="#FF7700"/><text fill="#FFFFFF" font-family="DejaVu Sans,DejaVu Sans_MSFontService,sans-serif" font-weight="400" font-size="21" transform="translate(324.452 49)">Application<tspan font-size="15" x="-28.7533" y="22">Written by the End User</tspan></text><rect x="342.5" y="157.5" width="113" height="60" stroke="#92B70D" stroke-linejoin="round" stroke-miterlimit="10" fill="#92B70D"/><text fill="#FFFFFF" font-family="DejaVu Sans,DejaVu Sans_MSFontService,sans-serif" font-weight="400" font-size="21" transform="translate(380.217 194)">CCI</text><rect x="469.5" y="157.5" width="114" height="60" stroke="#92B70D" stroke-linejoin="round" stroke-miterlimit="10" fill="#92B70D"/><text fill="#FFFFFF" font-family="DejaVu Sans,DejaVu Sans_MSFontService,sans-serif" font-weight="400" font-size="21" transform="translate(504.669 194)">SCV</text><rect x="597.5" y="157.5" width="114" height="60" stroke="#92B70D" stroke-linejoin="round" stroke-miterlimit="10" fill="#92B70D"/><text fill="#FFFFFF" font-family="DejaVu Sans,DejaVu Sans_MSFontService,sans-serif" font-weight="400" font-size="21" transform="translate(625.957 181)">UVM<tspan font-size="21" x="48.6666" y="0">-</tspan><tspan font-size="21" x="-19.0867" y="26">SystemC</tspan></text><rect x="14.5001" y="489.5" width="740" height="62" stroke="#1FD19A" stroke-linejoin="round" stroke-miterlimit="10" fill="#1FD19A"/><text fill="#FFFFFF" font-family="DejaVu Sans,DejaVu Sans_MSFontService,sans-serif" font-weight="400" font-size="21" transform="translate(227.535 516)">Programming Language C++<tspan font-size="15" x="65.58" y="22">ISO/IEC Std. 14882</tspan><tspan font-size="15" x="204.747" y="22">-</tspan><tspan font-size="15" x="210.08" y="22">2003</tspan></text></g></svg>